<svg width="230" height="61" viewBox="0 0 230 61" fill="none" xmlns="http://www.w3.org/2000/svg">
<path d="M55.25 28.0938C55.25 27.6562 55.1823 27.2656 55.0469 26.9219C54.9219 26.5677 54.6875 26.25 54.3438 25.9688C54.0104 25.6771 53.5365 25.3958 52.9219 25.125C52.3177 24.8438 51.5365 24.5521 50.5781 24.25C49.5156 23.9167 48.526 23.5417 47.6094 23.125C46.6927 22.7083 45.8854 22.224 45.1875 21.6719C44.5 21.1198 43.9635 20.4844 43.5781 19.7656C43.1927 19.0365 43 18.1927 43 17.2344C43 16.2969 43.1979 15.4427 43.5938 14.6719C44 13.901 44.5729 13.2396 45.3125 12.6875C46.0521 12.125 46.9219 11.6927 47.9219 11.3906C48.9323 11.0885 50.0469 10.9375 51.2656 10.9375C52.9531 10.9375 54.4115 11.2448 55.6406 11.8594C56.8802 12.474 57.8385 13.3073 58.5156 14.3594C59.1927 15.4115 59.5312 16.5938 59.5312 17.9062H55.25C55.25 17.1979 55.099 16.5729 54.7969 16.0312C54.5052 15.4896 54.0573 15.0625 53.4531 14.75C52.8594 14.4375 52.1094 14.2812 51.2031 14.2812C50.3281 14.2812 49.599 14.4115 49.0156 14.6719C48.4427 14.9323 48.0104 15.2865 47.7188 15.7344C47.4375 16.1823 47.2969 16.6823 47.2969 17.2344C47.2969 17.651 47.3958 18.026 47.5938 18.3594C47.7917 18.6823 48.0885 18.9896 48.4844 19.2812C48.8802 19.5625 49.3698 19.8281 49.9531 20.0781C50.5469 20.3177 51.2344 20.5573 52.0156 20.7969C53.2656 21.1719 54.3594 21.5885 55.2969 22.0469C56.2448 22.5052 57.0312 23.026 57.6562 23.6094C58.2917 24.1927 58.7656 24.849 59.0781 25.5781C59.401 26.3073 59.5625 27.1354 59.5625 28.0625C59.5625 29.0417 59.3698 29.9167 58.9844 30.6875C58.599 31.4583 58.0469 32.1146 57.3281 32.6562C56.6094 33.1979 55.7448 33.6094 54.7344 33.8906C53.7344 34.1719 52.6146 34.3125 51.375 34.3125C50.2708 34.3125 49.1771 34.1667 48.0938 33.875C47.0208 33.5729 46.0469 33.125 45.1719 32.5312C44.2969 31.9271 43.599 31.1667 43.0781 30.25C42.5573 29.3229 42.2969 28.2396 42.2969 27H46.6094C46.6094 27.7188 46.724 28.3333 46.9531 28.8438C47.1927 29.3438 47.526 29.7552 47.9531 30.0781C48.3906 30.3906 48.901 30.6198 49.4844 30.7656C50.0677 30.9115 50.6979 30.9844 51.375 30.9844C52.25 30.9844 52.9688 30.8646 53.5312 30.625C54.1042 30.375 54.5312 30.0312 54.8125 29.5938C55.1042 29.1562 55.25 28.6562 55.25 28.0938ZM71.875 30.4062V22.6094C71.875 22.0365 71.776 21.5417 71.5781 21.125C71.3802 20.7083 71.0781 20.3854 70.6719 20.1562C70.2656 19.9271 69.75 19.8125 69.125 19.8125C68.5729 19.8125 68.0885 19.9062 67.6719 20.0938C67.2656 20.2812 66.9531 20.5469 66.7344 20.8906C66.5156 21.224 66.4062 21.6094 66.4062 22.0469H62.2656C62.2656 21.349 62.4323 20.6875 62.7656 20.0625C63.099 19.4271 63.5729 18.8646 64.1875 18.375C64.8125 17.875 65.5573 17.4844 66.4219 17.2031C67.2969 16.9219 68.276 16.7812 69.3594 16.7812C70.6406 16.7812 71.7812 17 72.7812 17.4375C73.7917 17.8646 74.5833 18.5104 75.1562 19.375C75.7396 20.2396 76.0312 21.3281 76.0312 22.6406V30.0156C76.0312 30.8594 76.0833 31.5833 76.1875 32.1875C76.3021 32.7812 76.4688 33.2969 76.6875 33.7344V34H72.4844C72.2865 33.5729 72.1354 33.0312 72.0312 32.375C71.9271 31.7083 71.875 31.0521 71.875 30.4062ZM72.4531 23.7031L72.4844 26.1562H69.875C69.2292 26.1562 68.6615 26.224 68.1719 26.3594C67.6823 26.4844 67.2812 26.6719 66.9688 26.9219C66.6562 27.1615 66.4219 27.4531 66.2656 27.7969C66.1094 28.1302 66.0312 28.5104 66.0312 28.9375C66.0312 29.3542 66.125 29.7292 66.3125 30.0625C66.5104 30.3958 66.7917 30.6615 67.1562 30.8594C67.5312 31.0469 67.9688 31.1406 68.4688 31.1406C69.1979 31.1406 69.8333 30.9948 70.375 30.7031C70.9167 30.401 71.3385 30.0365 71.6406 29.6094C71.9427 29.1823 72.1042 28.776 72.125 28.3906L73.3125 30.1719C73.1667 30.599 72.9479 31.0521 72.6562 31.5312C72.3646 32.0104 71.9896 32.4583 71.5312 32.875C71.0729 33.2917 70.5208 33.6354 69.875 33.9062C69.2292 34.1771 68.4792 34.3125 67.625 34.3125C66.5312 34.3125 65.5521 34.0938 64.6875 33.6562C63.8229 33.2188 63.1406 32.6198 62.6406 31.8594C62.1406 31.099 61.8906 30.2344 61.8906 29.2656C61.8906 28.3698 62.0573 27.5781 62.3906 26.8906C62.724 26.2031 63.2188 25.625 63.875 25.1562C64.5312 24.6771 65.3438 24.3177 66.3125 24.0781C67.2917 23.8281 68.4115 23.7031 69.6719 23.7031H72.4531ZM83.7969 20.7031V34H79.6719V17.0938H83.5469L83.7969 20.7031ZM83.1406 24.9375H81.9219C81.9323 23.7083 82.099 22.5938 82.4219 21.5938C82.7448 20.5938 83.1979 19.7344 83.7812 19.0156C84.375 18.2969 85.0781 17.7448 85.8906 17.3594C86.7031 16.974 87.6094 16.7812 88.6094 16.7812C89.4219 16.7812 90.1562 16.8958 90.8125 17.125C91.4688 17.3542 92.0312 17.7188 92.5 18.2188C92.9792 18.7188 93.3438 19.375 93.5938 20.1875C93.8542 20.9896 93.9844 21.9792 93.9844 23.1562V34H89.8281V23.125C89.8281 22.3542 89.7135 21.7448 89.4844 21.2969C89.2656 20.849 88.9427 20.5312 88.5156 20.3438C88.099 20.1562 87.5833 20.0625 86.9688 20.0625C86.3333 20.0625 85.776 20.1927 85.2969 20.4531C84.8281 20.7031 84.4323 21.0521 84.1094 21.5C83.7969 21.9479 83.5573 22.4635 83.3906 23.0469C83.224 23.6302 83.1406 24.2604 83.1406 24.9375ZM108.375 17.0938H112.125V33.4844C112.125 35.0156 111.792 36.3125 111.125 37.375C110.469 38.4479 109.547 39.2604 108.359 39.8125C107.172 40.375 105.792 40.6562 104.219 40.6562C103.542 40.6562 102.807 40.5625 102.016 40.375C101.234 40.1875 100.479 39.8906 99.75 39.4844C99.0312 39.0885 98.4323 38.5729 97.9531 37.9375L99.8125 35.5C100.375 36.1562 101.01 36.651 101.719 36.9844C102.427 37.3281 103.193 37.5 104.016 37.5C104.849 37.5 105.557 37.3438 106.141 37.0312C106.734 36.7292 107.188 36.2812 107.5 35.6875C107.823 35.1042 107.984 34.3854 107.984 33.5312V20.9531L108.375 17.0938ZM96.9531 25.75V25.4219C96.9531 24.1302 97.1094 22.9583 97.4219 21.9062C97.7344 20.8438 98.1823 19.9323 98.7656 19.1719C99.3594 18.4115 100.073 17.8229 100.906 17.4062C101.75 16.9896 102.698 16.7812 103.75 16.7812C104.865 16.7812 105.802 16.9844 106.562 17.3906C107.333 17.7969 107.969 18.375 108.469 19.125C108.979 19.875 109.375 20.7656 109.656 21.7969C109.948 22.8177 110.172 23.9427 110.328 25.1719V26.0625C110.182 27.2604 109.948 28.3594 109.625 29.3594C109.312 30.3594 108.896 31.2344 108.375 31.9844C107.854 32.724 107.208 33.2969 106.438 33.7031C105.667 34.1094 104.76 34.3125 103.719 34.3125C102.677 34.3125 101.74 34.099 100.906 33.6719C100.073 33.2448 99.3594 32.6458 98.7656 31.875C98.1823 31.1042 97.7344 30.1979 97.4219 29.1562C97.1094 28.1146 96.9531 26.9792 96.9531 25.75ZM101.078 25.4219V25.75C101.078 26.4792 101.151 27.1615 101.297 27.7969C101.443 28.4323 101.667 28.9948 101.969 29.4844C102.271 29.9635 102.651 30.3385 103.109 30.6094C103.568 30.8802 104.115 31.0156 104.75 31.0156C105.604 31.0156 106.302 30.8385 106.844 30.4844C107.396 30.1198 107.812 29.625 108.094 29C108.385 28.3646 108.573 27.651 108.656 26.8594V24.4062C108.604 23.7812 108.49 23.2031 108.312 22.6719C108.146 22.1406 107.911 21.6823 107.609 21.2969C107.307 20.9115 106.922 20.6094 106.453 20.3906C105.984 20.1719 105.427 20.0625 104.781 20.0625C104.156 20.0625 103.609 20.2031 103.141 20.4844C102.672 20.7552 102.286 21.1354 101.984 21.625C101.682 22.1146 101.453 22.6823 101.297 23.3281C101.151 23.974 101.078 24.6719 101.078 25.4219ZM137.438 26.5156H141.734C141.62 28.0365 141.198 29.3854 140.469 30.5625C139.74 31.7292 138.724 32.6458 137.422 33.3125C136.12 33.9792 134.542 34.3125 132.688 34.3125C131.26 34.3125 129.974 34.0625 128.828 33.5625C127.693 33.0521 126.719 32.3281 125.906 31.3906C125.104 30.4427 124.49 29.3073 124.062 27.9844C123.635 26.651 123.422 25.1562 123.422 23.5V21.7656C123.422 20.1094 123.641 18.6146 124.078 17.2812C124.516 15.9479 125.141 14.8125 125.953 13.875C126.776 12.9271 127.76 12.1979 128.906 11.6875C130.062 11.1771 131.354 10.9219 132.781 10.9219C134.635 10.9219 136.203 11.2656 137.484 11.9531C138.766 12.6302 139.76 13.5625 140.469 14.75C141.177 15.9375 141.604 17.3021 141.75 18.8438H137.453C137.37 17.8854 137.161 17.0729 136.828 16.4062C136.505 15.7396 136.016 15.2344 135.359 14.8906C134.714 14.5365 133.854 14.3594 132.781 14.3594C131.948 14.3594 131.214 14.5156 130.578 14.8281C129.953 15.1406 129.432 15.6094 129.016 16.2344C128.599 16.849 128.286 17.6198 128.078 18.5469C127.87 19.4635 127.766 20.526 127.766 21.7344V23.5C127.766 24.6562 127.859 25.6927 128.047 26.6094C128.234 27.526 128.526 28.3021 128.922 28.9375C129.318 29.5729 129.828 30.0573 130.453 30.3906C131.078 30.724 131.823 30.8906 132.688 30.8906C133.74 30.8906 134.594 30.724 135.25 30.3906C135.917 30.0573 136.422 29.5677 136.766 28.9219C137.12 28.276 137.344 27.474 137.438 26.5156ZM144.016 25.7188V25.3906C144.016 24.151 144.193 23.0104 144.547 21.9688C144.901 20.9167 145.417 20.0052 146.094 19.2344C146.771 18.4635 147.599 17.8646 148.578 17.4375C149.557 17 150.672 16.7812 151.922 16.7812C153.193 16.7812 154.318 17 155.297 17.4375C156.286 17.8646 157.12 18.4635 157.797 19.2344C158.474 20.0052 158.99 20.9167 159.344 21.9688C159.698 23.0104 159.875 24.151 159.875 25.3906V25.7188C159.875 26.9479 159.698 28.0885 159.344 29.1406C158.99 30.1823 158.474 31.0938 157.797 31.875C157.12 32.6458 156.292 33.2448 155.312 33.6719C154.333 34.099 153.214 34.3125 151.953 34.3125C150.703 34.3125 149.583 34.099 148.594 33.6719C147.604 33.2448 146.771 32.6458 146.094 31.875C145.417 31.0938 144.901 30.1823 144.547 29.1406C144.193 28.0885 144.016 26.9479 144.016 25.7188ZM148.141 25.3906V25.7188C148.141 26.4583 148.214 27.151 148.359 27.7969C148.505 28.4427 148.729 29.0104 149.031 29.5C149.333 29.9896 149.724 30.375 150.203 30.6562C150.693 30.9271 151.276 31.0625 151.953 31.0625C152.62 31.0625 153.193 30.9271 153.672 30.6562C154.151 30.375 154.542 29.9896 154.844 29.5C155.156 29.0104 155.385 28.4427 155.531 27.7969C155.677 27.151 155.75 26.4583 155.75 25.7188V25.3906C155.75 24.6615 155.677 23.9792 155.531 23.3438C155.385 22.6979 155.156 22.1302 154.844 21.6406C154.542 21.1406 154.146 20.75 153.656 20.4688C153.177 20.1771 152.599 20.0312 151.922 20.0312C151.255 20.0312 150.682 20.1771 150.203 20.4688C149.724 20.75 149.333 21.1406 149.031 21.6406C148.729 22.1302 148.505 22.6979 148.359 23.3438C148.214 23.9792 148.141 24.6615 148.141 25.3906ZM166.984 20.5625V34H162.859V17.0938H166.75L166.984 20.5625ZM166.375 24.9375H165.109C165.109 23.7604 165.25 22.6771 165.531 21.6875C165.823 20.6979 166.25 19.8385 166.812 19.1094C167.375 18.3698 168.068 17.7969 168.891 17.3906C169.724 16.9844 170.688 16.7812 171.781 16.7812C172.542 16.7812 173.24 16.8958 173.875 17.125C174.51 17.3438 175.057 17.6927 175.516 18.1719C175.984 18.6406 176.344 19.2552 176.594 20.0156C176.844 20.7656 176.969 21.6667 176.969 22.7188V34H172.844V23.1406C172.844 22.349 172.729 21.7292 172.5 21.2812C172.281 20.8333 171.964 20.5208 171.547 20.3438C171.13 20.1562 170.63 20.0625 170.047 20.0625C169.401 20.0625 168.844 20.1927 168.375 20.4531C167.917 20.7031 167.536 21.0521 167.234 21.5C166.943 21.9479 166.724 22.4635 166.578 23.0469C166.443 23.6302 166.375 24.2604 166.375 24.9375ZM176.656 24.1719L174.953 24.4844C174.964 23.4219 175.109 22.4271 175.391 21.5C175.672 20.5625 176.083 19.7448 176.625 19.0469C177.177 18.3385 177.859 17.7865 178.672 17.3906C179.495 16.9844 180.443 16.7812 181.516 16.7812C182.349 16.7812 183.099 16.901 183.766 17.1406C184.443 17.3698 185.021 17.7396 185.5 18.25C185.979 18.75 186.344 19.401 186.594 20.2031C186.854 21.0052 186.984 21.9844 186.984 23.1406V34H182.828V23.125C182.828 22.3021 182.714 21.6719 182.484 21.2344C182.266 20.7969 181.948 20.4948 181.531 20.3281C181.115 20.151 180.625 20.0625 180.062 20.0625C179.49 20.0625 178.99 20.1719 178.562 20.3906C178.146 20.599 177.792 20.8906 177.5 21.2656C177.219 21.6406 177.005 22.0781 176.859 22.5781C176.724 23.0677 176.656 23.599 176.656 24.1719Z" fill="#2D81FF"/>
<path d="M44.159 47.769V48.835C44.159 50.473 43.34 52.085 41.325 52.761L42.248 54.126C44.536 53.333 45.576 51.227 45.576 48.835V47.769H44.159ZM44.51 47.769V49.004C44.51 51.175 45.537 53.047 47.708 53.775L48.605 52.436C46.72 51.851 45.914 50.447 45.914 49.004V47.769H44.51ZM49.268 47.119V54.23H50.997V47.119H49.268ZM50.516 49.901V51.331H52.596V49.901H50.516ZM47.071 54.503C44.562 54.503 42.989 55.374 42.989 56.83C42.989 58.299 44.562 59.157 47.071 59.157C49.567 59.157 51.14 58.299 51.14 56.83C51.14 55.374 49.567 54.503 47.071 54.503ZM47.071 55.842C48.605 55.842 49.424 56.167 49.424 56.83C49.424 57.506 48.605 57.818 47.071 57.818C45.537 57.818 44.705 57.506 44.705 56.83C44.705 56.167 45.537 55.842 47.071 55.842ZM59.303 48.861V50.226H62.371V48.861H59.303ZM59.303 51.266V52.644H62.423V51.266H59.303ZM61.825 47.119V54.165H63.554V47.119H61.825ZM53.973 47.99V53.515H59.667V47.99H53.973ZM57.964 49.355V52.163H55.676V49.355H57.964ZM59.472 54.477C56.924 54.477 55.351 55.348 55.351 56.817C55.351 58.299 56.924 59.157 59.472 59.157C62.02 59.157 63.593 58.299 63.593 56.817C63.593 55.348 62.02 54.477 59.472 54.477ZM59.472 55.803C61.045 55.803 61.877 56.128 61.877 56.817C61.877 57.506 61.045 57.844 59.472 57.844C57.912 57.844 57.08 57.506 57.08 56.817C57.08 56.128 57.912 55.803 59.472 55.803ZM70.82 49.576V50.967H74.096V49.576H70.82ZM70.82 53.307V54.698H74.096V53.307H70.82ZM68.74 47.951C66.933 47.951 65.633 49.615 65.633 52.241C65.633 54.893 66.933 56.557 68.74 56.557C70.534 56.557 71.847 54.893 71.847 52.241C71.847 49.615 70.534 47.951 68.74 47.951ZM68.74 49.524C69.624 49.524 70.209 50.473 70.209 52.241C70.209 54.035 69.624 54.997 68.74 54.997C67.869 54.997 67.271 54.035 67.271 52.241C67.271 50.473 67.869 49.524 68.74 49.524ZM73.823 47.106V59.183H75.539V47.106H73.823ZM80.101 49.017V50.369C80.101 52.345 79.126 54.594 77.137 55.53L78.112 56.895C80.322 55.855 81.466 53.086 81.466 50.369V49.017H80.101ZM80.465 49.017V50.369C80.465 52.93 81.583 55.569 83.793 56.596L84.742 55.231C82.766 54.321 81.83 52.189 81.83 50.369V49.017H80.465ZM77.605 48.276V49.693H84.209V48.276H77.605ZM85.093 47.119V59.157H86.835V47.119H85.093ZM86.445 51.708V53.138H88.577V51.708H86.445ZM90.4739 48.133V49.524H98.1049V48.133H90.4739ZM89.3689 56.31V57.714H100.25V56.31H89.3689ZM93.2169 52.176V56.999H94.9459V52.176H93.2169ZM97.4809 48.133V49.29C97.4809 50.733 97.4809 52.475 96.9999 54.867L98.7289 55.062C99.2099 52.488 99.2099 50.798 99.2099 49.29V48.133H97.4809ZM101.328 52.618V54.022H112.222V52.618H101.328ZM102.641 50.421V51.786H110.987V50.421H102.641ZM102.641 47.444V51.097H104.357V48.822H110.922V47.444H102.641ZM106.736 54.737C104.136 54.737 102.55 55.53 102.55 56.947C102.55 58.364 104.136 59.157 106.736 59.157C109.336 59.157 110.909 58.364 110.909 56.947C110.909 55.53 109.336 54.737 106.736 54.737ZM106.736 56.037C108.348 56.037 109.167 56.336 109.167 56.947C109.167 57.571 108.348 57.844 106.736 57.844C105.124 57.844 104.305 57.571 104.305 56.947C104.305 56.336 105.124 56.037 106.736 56.037ZM113.274 48.172V49.537H120.359V48.172H113.274ZM116.823 49.914C115.081 49.914 113.859 50.811 113.859 52.137C113.859 53.463 115.081 54.347 116.823 54.347C118.552 54.347 119.774 53.463 119.774 52.137C119.774 50.811 118.552 49.914 116.823 49.914ZM116.823 51.214C117.59 51.214 118.123 51.526 118.123 52.137C118.123 52.735 117.59 53.047 116.823 53.047C116.043 53.047 115.523 52.735 115.523 52.137C115.523 51.526 116.043 51.214 116.823 51.214ZM121.022 47.119V54.672H122.751V47.119H121.022ZM122.27 50.226V51.63H124.35V50.226H122.27ZM114.717 55.166V56.544H121.022V59.157H122.751V55.166H114.717ZM115.952 47.054V48.952H117.681V47.054H115.952ZM126.299 48.133V49.524H133.917V48.133H126.299ZM125.246 56.31V57.714H136.127V56.31H125.246ZM127.521 52.514V56.752H129.237V52.514H127.521ZM133.41 48.133V49.316C133.41 50.733 133.41 52.423 133.007 54.711L134.723 54.88C135.152 52.436 135.152 50.772 135.152 49.316V48.133H133.41ZM130.498 52.514V56.752H132.201V52.514H130.498ZM144.875 48.276V48.484C144.875 51.89 143.874 54.165 140.325 56.037L141.274 57.35C145.59 55.088 146.552 51.981 146.552 48.276H144.875ZM141.04 48.276V49.641H145.928V48.276H141.04ZM145.044 51.227L140.403 51.487L140.624 52.943L145.044 52.54V51.227ZM148.775 47.119V59.157H150.504V47.119H148.775ZM146.539 51.734V53.138H149.685V51.734H146.539ZM154.884 54.178V59.196H156.613V54.178H154.884ZM159.122 54.178V59.196H160.851V54.178H159.122ZM152.388 53.827V55.205H163.295V53.827H152.388ZM153.649 47.691V52.54H161.995V47.691H153.649ZM160.292 49.043V51.175H155.352V49.043H160.292ZM172.68 47.119V59.157H174.409V47.119H172.68ZM164.984 48.263V55.738H166.7V48.263H164.984ZM164.984 54.724V56.193H166.05C167.883 56.193 169.872 56.063 171.939 55.634L171.744 54.204C169.755 54.594 167.805 54.724 166.05 54.724H164.984ZM176.956 55.036V56.44H177.996C180.141 56.44 181.844 56.388 183.729 56.089L183.573 54.724C181.714 54.997 180.102 55.036 177.996 55.036H176.956ZM176.956 48.12V55.491H178.672V49.524H183.053V48.12H176.956ZM178.282 51.461V52.813H182.546V51.461H178.282ZM184.6 47.119V59.157H186.342V47.119H184.6Z" fill="#787878"/>
</svg>
